<?xml version="1.0" encoding="UTF-8" standalone="no"?>
<!DOCTYPE svg PUBLIC "-//W3C//DTD SVG 1.1//EN"
 "http://www.w3.org/Graphics/SVG/1.1/DTD/svg11.dtd">
<!-- Generated by graphviz version 2.40.1 (20161225.0304)
 -->
<!-- Title: dependencies Pages: 1 -->
<svg width="983pt" height="211pt"
 viewBox="0.00 0.00 983.00 211.00" xmlns="http://www.w3.org/2000/svg" xmlns:xlink="http://www.w3.org/1999/xlink">
<g id="graph0" class="graph" transform="scale(1 1) rotate(0) translate(4 207)">
<title>dependencies</title>
<polygon fill="#ffffff" stroke="transparent" points="-4,4 -4,-207 979,-207 979,4 -4,4"/>
<text text-anchor="start" x="466.5091" y="-42.4" font-family="sans-serif" font-weight="bold" font-size="14.00" fill="#000000">Legend</text>
<polygon fill="#ffffb3" stroke="transparent" points="253.5,-10 253.5,-30 273.5,-30 273.5,-10 253.5,-10"/>
<text text-anchor="start" x="277.129" y="-15.4" font-family="sans-serif" font-size="14.00" fill="#000000"> &#160;Declarations</text>
<polygon fill="#8dd3c7" stroke="transparent" points="366.5,-10 366.5,-30 386.5,-30 386.5,-10 366.5,-10"/>
<text text-anchor="start" x="390.2251" y="-15.4" font-family="sans-serif" font-size="14.00" fill="#000000"> &#160;Module</text>
<polygon fill="#80b1d3" stroke="transparent" points="452.5,-10 452.5,-30 472.5,-30 472.5,-10 452.5,-10"/>
<text text-anchor="start" x="476.2812" y="-15.4" font-family="sans-serif" font-size="14.00" fill="#000000"> &#160;Bootstrap</text>
<polygon fill="#fdb462" stroke="transparent" points="549.5,-10 549.5,-30 569.5,-30 569.5,-10 549.5,-10"/>
<text text-anchor="start" x="573.1732" y="-15.4" font-family="sans-serif" font-size="14.00" fill="#000000"> &#160;Providers</text>
<polygon fill="#fb8072" stroke="transparent" points="645.5,-10 645.5,-30 665.5,-30 665.5,-10 645.5,-10"/>
<text text-anchor="start" x="669.2258" y="-15.4" font-family="sans-serif" font-size="14.00" fill="#000000"> &#160;Exports</text>
<g id="clust1" class="cluster">
<title>cluster_AuthorizePaymentModule</title>
<polygon fill="none" stroke="#000000" stroke-dasharray="1,5" points="8,-70 8,-195 967,-195 967,-70 8,-70"/>
</g>
<g id="clust2" class="cluster">
<title>cluster_AuthorizePaymentModule_declarations</title>
<polygon fill="none" stroke="#000000" points="436,-78 436,-130 959,-130 959,-78 436,-78"/>
</g>
<g id="clust6" class="cluster">
<title>cluster_AuthorizePaymentModule_imports</title>
<polygon fill="none" stroke="#000000" points="264,-78 264,-130 428,-130 428,-78 264,-78"/>
</g>
<g id="clust9" class="cluster">
<title>cluster_AuthorizePaymentModule_providers</title>
<polygon fill="none" stroke="#000000" points="16,-78 16,-130 256,-130 256,-78 16,-78"/>
</g>
<!-- AuthorizePaymentComponent -->
<g id="node1" class="node">
<title>AuthorizePaymentComponent</title>
<polygon fill="#ffffb3" stroke="#000000" points="951.3032,-122 764.6968,-122 764.6968,-86 951.3032,-86 951.3032,-122"/>
<text text-anchor="middle" x="858" y="-99.8" font-family="Times,serif" font-size="14.00" fill="#000000">AuthorizePaymentComponent</text>
</g>
<!-- AuthorizePaymentModule -->
<g id="node4" class="node">
<title>AuthorizePaymentModule</title>
<polygon fill="#8dd3c7" stroke="#000000" points="588.0211,-187 585.0211,-191 564.0211,-191 561.0211,-187 423.9789,-187 423.9789,-151 588.0211,-151 588.0211,-187"/>
<text text-anchor="middle" x="506" y="-164.8" font-family="Times,serif" font-size="14.00" fill="#000000">AuthorizePaymentModule</text>
</g>
<!-- AuthorizePaymentComponent&#45;&gt;AuthorizePaymentModule -->
<g id="edge1" class="edge">
<title>AuthorizePaymentComponent&#45;&gt;AuthorizePaymentModule</title>
<path fill="none" stroke="#000000" d="M858,-122.1061C858,-141.3391 858,-169 858,-169 858,-169 598.0841,-169 598.0841,-169"/>
<polygon fill="#000000" stroke="#000000" points="598.0842,-165.5001 588.0841,-169 598.0841,-172.5001 598.0842,-165.5001"/>
</g>
<!-- PaymentFormComponent -->
<g id="node2" class="node">
<title>PaymentFormComponent</title>
<polygon fill="#ffffb3" stroke="#000000" points="747.1596,-122 586.8404,-122 586.8404,-86 747.1596,-86 747.1596,-122"/>
<text text-anchor="middle" x="667" y="-99.8" font-family="Times,serif" font-size="14.00" fill="#000000">PaymentFormComponent</text>
</g>
<!-- PaymentFormComponent&#45;&gt;AuthorizePaymentModule -->
<g id="edge2" class="edge">
<title>PaymentFormComponent&#45;&gt;AuthorizePaymentModule</title>
<path fill="none" stroke="#000000" d="M586.7907,-104C581.1053,-104 577.5554,-104 577.5554,-104 577.5554,-104 577.5554,-140.8939 577.5554,-140.8939"/>
<polygon fill="#000000" stroke="#000000" points="574.0555,-140.8938 577.5554,-150.8939 581.0555,-140.8939 574.0555,-140.8938"/>
</g>
<!-- ProductComponent -->
<g id="node3" class="node">
<title>ProductComponent</title>
<polygon fill="#ffffb3" stroke="#000000" points="568.3809,-122 443.6191,-122 443.6191,-86 568.3809,-86 568.3809,-122"/>
<text text-anchor="middle" x="506" y="-99.8" font-family="Times,serif" font-size="14.00" fill="#000000">ProductComponent</text>
</g>
<!-- ProductComponent&#45;&gt;AuthorizePaymentModule -->
<g id="edge3" class="edge">
<title>ProductComponent&#45;&gt;AuthorizePaymentModule</title>
<path fill="none" stroke="#000000" d="M506,-122.1061C506,-122.1061 506,-140.991 506,-140.991"/>
<polygon fill="#000000" stroke="#000000" points="502.5001,-140.9909 506,-150.991 509.5001,-140.991 502.5001,-140.9909"/>
</g>
<!-- CancelPaymentModule -->
<g id="node5" class="node">
<title>CancelPaymentModule</title>
<polygon fill="#8dd3c7" stroke="#000000" points="419.9144,-122 416.9144,-126 395.9144,-126 392.9144,-122 272.0856,-122 272.0856,-86 419.9144,-86 419.9144,-122"/>
<text text-anchor="middle" x="346" y="-99.8" font-family="Times,serif" font-size="14.00" fill="#000000">CancelPaymentModule</text>
</g>
<!-- CancelPaymentModule&#45;&gt;AuthorizePaymentModule -->
<g id="edge4" class="edge">
<title>CancelPaymentModule&#45;&gt;AuthorizePaymentModule</title>
<path fill="none" stroke="#000000" d="M419.9544,-104C428.1716,-104 433.6497,-104 433.6497,-104 433.6497,-104 433.6497,-140.8939 433.6497,-140.8939"/>
<polygon fill="#000000" stroke="#000000" points="430.1498,-140.8938 433.6497,-150.8939 437.1498,-140.8939 430.1498,-140.8938"/>
</g>
<!-- AuthorizePaymentService -->
<g id="node6" class="node">
<title>AuthorizePaymentService</title>
<ellipse fill="#fdb462" stroke="#000000" cx="136" cy="-104" rx="112.2975" ry="18"/>
<text text-anchor="middle" x="136" y="-99.8" font-family="Times,serif" font-size="14.00" fill="#000000">AuthorizePaymentService</text>
</g>
<!-- AuthorizePaymentService&#45;&gt;AuthorizePaymentModule -->
<g id="edge5" class="edge">
<title>AuthorizePaymentService&#45;&gt;AuthorizePaymentModule</title>
<path fill="none" stroke="#000000" d="M136,-122.1061C136,-141.3391 136,-169 136,-169 136,-169 413.885,-169 413.885,-169"/>
<polygon fill="#000000" stroke="#000000" points="413.885,-172.5001 423.885,-169 413.885,-165.5001 413.885,-172.5001"/>
</g>
</g>
</svg>
