<?xml version="1.0" encoding="UTF-8" standalone="no"?>
<!DOCTYPE svg PUBLIC "-//W3C//DTD SVG 1.1//EN"
 "http://www.w3.org/Graphics/SVG/1.1/DTD/svg11.dtd">
<!-- Generated by graphviz version 2.40.1 (20161225.0304)
 -->
<!-- Title: dependencies Pages: 1 -->
<svg width="735pt" height="284pt"
 viewBox="0.00 0.00 735.00 284.00" xmlns="http://www.w3.org/2000/svg" xmlns:xlink="http://www.w3.org/1999/xlink">
<g id="graph0" class="graph" transform="scale(1 1) rotate(0) translate(4 280)">
<title>dependencies</title>
<polygon fill="#ffffff" stroke="transparent" points="-4,4 -4,-280 731,-280 731,4 -4,4"/>
<text text-anchor="start" x="342.5091" y="-42.4" font-family="sans-serif" font-weight="bold" font-size="14.00" fill="#000000">Legend</text>
<polygon fill="#ffffb3" stroke="transparent" points="129.5,-10 129.5,-30 149.5,-30 149.5,-10 129.5,-10"/>
<text text-anchor="start" x="153.129" y="-15.4" font-family="sans-serif" font-size="14.00" fill="#000000"> &#160;Declarations</text>
<polygon fill="#8dd3c7" stroke="transparent" points="242.5,-10 242.5,-30 262.5,-30 262.5,-10 242.5,-10"/>
<text text-anchor="start" x="266.2251" y="-15.4" font-family="sans-serif" font-size="14.00" fill="#000000"> &#160;Module</text>
<polygon fill="#80b1d3" stroke="transparent" points="328.5,-10 328.5,-30 348.5,-30 348.5,-10 328.5,-10"/>
<text text-anchor="start" x="352.2812" y="-15.4" font-family="sans-serif" font-size="14.00" fill="#000000"> &#160;Bootstrap</text>
<polygon fill="#fdb462" stroke="transparent" points="425.5,-10 425.5,-30 445.5,-30 445.5,-10 425.5,-10"/>
<text text-anchor="start" x="449.1732" y="-15.4" font-family="sans-serif" font-size="14.00" fill="#000000"> &#160;Providers</text>
<polygon fill="#fb8072" stroke="transparent" points="521.5,-10 521.5,-30 541.5,-30 541.5,-10 521.5,-10"/>
<text text-anchor="start" x="545.2258" y="-15.4" font-family="sans-serif" font-size="14.00" fill="#000000"> &#160;Exports</text>
<g id="clust1" class="cluster">
<title>cluster_AppModule</title>
<polygon fill="none" stroke="#000000" stroke-dasharray="1,5" points="8,-70 8,-268 719,-268 719,-70 8,-70"/>
</g>
<g id="clust2" class="cluster">
<title>cluster_AppModule_declarations</title>
<polygon fill="none" stroke="#000000" points="589,-78 589,-130 711,-130 711,-78 589,-78"/>
</g>
<g id="clust4" class="cluster">
<title>cluster_AppModule_imports</title>
<polygon fill="none" stroke="#000000" points="16,-78 16,-130 581,-130 581,-78 16,-78"/>
</g>
<g id="clust6" class="cluster">
<title>cluster_AppModule_bootstrap</title>
<polygon fill="none" stroke="#000000" points="375,-208 375,-260 499,-260 499,-208 375,-208"/>
</g>
<!-- AppComponent -->
<g id="node1" class="node">
<title>AppComponent</title>
<polygon fill="#ffffb3" stroke="#000000" points="702.9399,-122 597.0601,-122 597.0601,-86 702.9399,-86 702.9399,-122"/>
<text text-anchor="middle" x="650" y="-99.8" font-family="Times,serif" font-size="14.00" fill="#000000">AppComponent</text>
</g>
<!-- AppModule -->
<g id="node2" class="node">
<title>AppModule</title>
<polygon fill="#8dd3c7" stroke="#000000" points="478.6571,-187 475.6571,-191 454.6571,-191 451.6571,-187 395.3429,-187 395.3429,-151 478.6571,-151 478.6571,-187"/>
<text text-anchor="middle" x="437" y="-164.8" font-family="Times,serif" font-size="14.00" fill="#000000">AppModule</text>
</g>
<!-- AppComponent&#45;&gt;AppModule -->
<g id="edge1" class="edge">
<title>AppComponent&#45;&gt;AppModule</title>
<path fill="none" stroke="#000000" d="M650,-122.2843C650,-143.3211 650,-175 650,-175 650,-175 488.8278,-175 488.8278,-175"/>
<polygon fill="#000000" stroke="#000000" points="488.8278,-171.5001 478.8278,-175 488.8278,-178.5001 488.8278,-171.5001"/>
</g>
<!-- AppComponent  -->
<g id="node7" class="node">
<title>AppComponent </title>
<polygon fill="#80b1d3" stroke="#000000" points="491.439,-252 382.561,-252 382.561,-216 491.439,-216 491.439,-252"/>
<text text-anchor="middle" x="437" y="-229.8" font-family="Times,serif" font-size="14.00" fill="#000000">AppComponent </text>
</g>
<!-- AppModule&#45;&gt;AppComponent  -->
<g id="edge6" class="edge">
<title>AppModule&#45;&gt;AppComponent </title>
<path fill="none" stroke="#000000" stroke-dasharray="1,5" d="M437,-187.1061C437,-187.1061 437,-205.991 437,-205.991"/>
<polygon fill="#000000" stroke="#000000" points="433.5001,-205.9909 437,-215.991 440.5001,-205.991 433.5001,-205.9909"/>
</g>
<!-- ! -->
<g id="node3" class="node">
<title>!</title>
<polygon fill="#8dd3c7" stroke="#000000" points="573,-122 570,-126 549,-126 546,-122 519,-122 519,-86 573,-86 573,-122"/>
<text text-anchor="middle" x="546" y="-99.8" font-family="Times,serif" font-size="14.00" fill="#000000">!</text>
</g>
<!-- !&#45;&gt;AppModule -->
<g id="edge2" class="edge">
<title>!&#45;&gt;AppModule</title>
<path fill="none" stroke="#000000" d="M546,-122.0225C546,-139.3734 546,-163 546,-163 546,-163 488.8305,-163 488.8305,-163"/>
<polygon fill="#000000" stroke="#000000" points="488.8305,-159.5001 478.8305,-163 488.8305,-166.5001 488.8305,-159.5001"/>
</g>
<!-- AppRoutingModule -->
<g id="node4" class="node">
<title>AppRoutingModule</title>
<polygon fill="#8dd3c7" stroke="#000000" points="501.2744,-122 498.2744,-126 477.2744,-126 474.2744,-122 372.7256,-122 372.7256,-86 501.2744,-86 501.2744,-122"/>
<text text-anchor="middle" x="437" y="-99.8" font-family="Times,serif" font-size="14.00" fill="#000000">AppRoutingModule</text>
</g>
<!-- AppRoutingModule&#45;&gt;AppModule -->
<g id="edge3" class="edge">
<title>AppRoutingModule&#45;&gt;AppModule</title>
<path fill="none" stroke="#000000" d="M437,-122.1061C437,-122.1061 437,-140.991 437,-140.991"/>
<polygon fill="#000000" stroke="#000000" points="433.5001,-140.9909 437,-150.991 440.5001,-140.991 433.5001,-140.9909"/>
</g>
<!-- AuthorizePaymentModule -->
<g id="node5" class="node">
<title>AuthorizePaymentModule</title>
<polygon fill="#8dd3c7" stroke="#000000" points="354.0211,-122 351.0211,-126 330.0211,-126 327.0211,-122 189.9789,-122 189.9789,-86 354.0211,-86 354.0211,-122"/>
<text text-anchor="middle" x="272" y="-99.8" font-family="Times,serif" font-size="14.00" fill="#000000">AuthorizePaymentModule</text>
</g>
<!-- AuthorizePaymentModule&#45;&gt;AppModule -->
<g id="edge4" class="edge">
<title>AuthorizePaymentModule&#45;&gt;AppModule</title>
<path fill="none" stroke="#000000" d="M272,-122.0225C272,-139.3734 272,-163 272,-163 272,-163 384.9366,-163 384.9366,-163"/>
<polygon fill="#000000" stroke="#000000" points="384.9366,-166.5001 394.9366,-163 384.9366,-159.5001 384.9366,-166.5001"/>
</g>
<!-- CancelPaymentModule -->
<g id="node6" class="node">
<title>CancelPaymentModule</title>
<polygon fill="#8dd3c7" stroke="#000000" points="171.9144,-122 168.9144,-126 147.9144,-126 144.9144,-122 24.0856,-122 24.0856,-86 171.9144,-86 171.9144,-122"/>
<text text-anchor="middle" x="98" y="-99.8" font-family="Times,serif" font-size="14.00" fill="#000000">CancelPaymentModule</text>
</g>
<!-- CancelPaymentModule&#45;&gt;AppModule -->
<g id="edge5" class="edge">
<title>CancelPaymentModule&#45;&gt;AppModule</title>
<path fill="none" stroke="#000000" d="M98,-122.2843C98,-143.3211 98,-175 98,-175 98,-175 385.0919,-175 385.0919,-175"/>
<polygon fill="#000000" stroke="#000000" points="385.092,-178.5001 395.0919,-175 385.0919,-171.5001 385.092,-178.5001"/>
</g>
</g>
</svg>
