<?xml version="1.0" encoding="UTF-8" standalone="no"?>
<!DOCTYPE svg PUBLIC "-//W3C//DTD SVG 1.1//EN"
 "http://www.w3.org/Graphics/SVG/1.1/DTD/svg11.dtd">
<!-- Generated by graphviz version 2.40.1 (20161225.0304)
 -->
<!-- Title: dependencies Pages: 1 -->
<svg width="1367pt" height="428pt"
 viewBox="0.00 0.00 1367.00 428.00" xmlns="http://www.w3.org/2000/svg" xmlns:xlink="http://www.w3.org/1999/xlink">
<g id="graph0" class="graph" transform="scale(1 1) rotate(0) translate(4 424)">
<title>dependencies</title>
<polygon fill="#ffffff" stroke="transparent" points="-4,4 -4,-424 1363,-424 1363,4 -4,4"/>
<text text-anchor="start" x="658.5091" y="-42.4" font-family="sans-serif" font-weight="bold" font-size="14.00" fill="#000000">Legend</text>
<polygon fill="#ffffb3" stroke="transparent" points="445.5,-10 445.5,-30 465.5,-30 465.5,-10 445.5,-10"/>
<text text-anchor="start" x="469.129" y="-15.4" font-family="sans-serif" font-size="14.00" fill="#000000"> &#160;Declarations</text>
<polygon fill="#8dd3c7" stroke="transparent" points="558.5,-10 558.5,-30 578.5,-30 578.5,-10 558.5,-10"/>
<text text-anchor="start" x="582.2251" y="-15.4" font-family="sans-serif" font-size="14.00" fill="#000000"> &#160;Module</text>
<polygon fill="#80b1d3" stroke="transparent" points="644.5,-10 644.5,-30 664.5,-30 664.5,-10 644.5,-10"/>
<text text-anchor="start" x="668.2812" y="-15.4" font-family="sans-serif" font-size="14.00" fill="#000000"> &#160;Bootstrap</text>
<polygon fill="#fdb462" stroke="transparent" points="741.5,-10 741.5,-30 761.5,-30 761.5,-10 741.5,-10"/>
<text text-anchor="start" x="765.1732" y="-15.4" font-family="sans-serif" font-size="14.00" fill="#000000"> &#160;Providers</text>
<polygon fill="#fb8072" stroke="transparent" points="837.5,-10 837.5,-30 857.5,-30 857.5,-10 837.5,-10"/>
<text text-anchor="start" x="861.2258" y="-15.4" font-family="sans-serif" font-size="14.00" fill="#000000"> &#160;Exports</text>
<g id="clust1" class="cluster">
<title>cluster_AppModule</title>
<polygon fill="none" stroke="#000000" stroke-dasharray="1,5" points="28,-146 28,-412 556,-412 556,-146 28,-146"/>
</g>
<g id="clust2" class="cluster">
<title>cluster_AppModule_declarations</title>
<polygon fill="none" stroke="#000000" points="426,-222 426,-274 548,-274 548,-222 426,-222"/>
</g>
<g id="clust4" class="cluster">
<title>cluster_AppModule_imports</title>
<polygon fill="none" stroke="#000000" points="36,-154 36,-274 418,-274 418,-154 36,-154"/>
</g>
<g id="clust6" class="cluster">
<title>cluster_AppModule_bootstrap</title>
<polygon fill="none" stroke="#000000" points="165,-352 165,-404 289,-404 289,-352 165,-352"/>
</g>
<g id="clust14" class="cluster">
<title>cluster_AuthorizePaymentModule</title>
<polygon fill="none" stroke="#000000" stroke-dasharray="1,5" points="564,-146 564,-214 1351,-214 1351,-146 564,-146"/>
</g>
<g id="clust15" class="cluster">
<title>cluster_AuthorizePaymentModule_declarations</title>
<polygon fill="none" stroke="#000000" points="820,-154 820,-206 1343,-206 1343,-154 820,-154"/>
</g>
<g id="clust22" class="cluster">
<title>cluster_AuthorizePaymentModule_providers</title>
<polygon fill="none" stroke="#000000" points="572,-154 572,-206 812,-206 812,-154 572,-154"/>
</g>
<g id="clust23" class="cluster">
<title>cluster_CancelPaymentModule</title>
<polygon fill="none" stroke="#000000" stroke-dasharray="1,5" points="8,-70 8,-138 632,-138 632,-70 8,-70"/>
</g>
<g id="clust24" class="cluster">
<title>cluster_CancelPaymentModule_declarations</title>
<polygon fill="none" stroke="#000000" points="438,-78 438,-130 624,-130 624,-78 438,-78"/>
</g>
<g id="clust27" class="cluster">
<title>cluster_CancelPaymentModule_exports</title>
<polygon fill="none" stroke="#000000" points="242,-78 242,-130 430,-130 430,-78 242,-78"/>
</g>
<g id="clust29" class="cluster">
<title>cluster_CancelPaymentModule_providers</title>
<polygon fill="none" stroke="#000000" points="16,-78 16,-130 234,-130 234,-78 16,-78"/>
</g>
<!-- AppComponent -->
<g id="node1" class="node">
<title>AppComponent</title>
<polygon fill="#ffffb3" stroke="#000000" points="539.9399,-266 434.0601,-266 434.0601,-230 539.9399,-230 539.9399,-266"/>
<text text-anchor="middle" x="487" y="-243.8" font-family="Times,serif" font-size="14.00" fill="#000000">AppComponent</text>
</g>
<!-- AppModule -->
<g id="node2" class="node">
<title>AppModule</title>
<polygon fill="#8dd3c7" stroke="#000000" points="268.6571,-331 265.6571,-335 244.6571,-335 241.6571,-331 185.3429,-331 185.3429,-295 268.6571,-295 268.6571,-331"/>
<text text-anchor="middle" x="227" y="-308.8" font-family="Times,serif" font-size="14.00" fill="#000000">AppModule</text>
</g>
<!-- AppComponent&#45;&gt;AppModule -->
<g id="edge1" class="edge">
<title>AppComponent&#45;&gt;AppModule</title>
<path fill="none" stroke="#000000" d="M487,-266.1061C487,-285.3391 487,-313 487,-313 487,-313 278.7735,-313 278.7735,-313"/>
<polygon fill="#000000" stroke="#000000" points="278.7735,-309.5001 268.7735,-313 278.7735,-316.5001 278.7735,-309.5001"/>
</g>
<!-- AppComponent  -->
<g id="node7" class="node">
<title>AppComponent </title>
<polygon fill="#80b1d3" stroke="#000000" points="281.439,-396 172.561,-396 172.561,-360 281.439,-360 281.439,-396"/>
<text text-anchor="middle" x="227" y="-373.8" font-family="Times,serif" font-size="14.00" fill="#000000">AppComponent </text>
</g>
<!-- AppModule&#45;&gt;AppComponent  -->
<g id="edge6" class="edge">
<title>AppModule&#45;&gt;AppComponent </title>
<path fill="none" stroke="#000000" stroke-dasharray="1,5" d="M227,-331.1061C227,-331.1061 227,-349.991 227,-349.991"/>
<polygon fill="#000000" stroke="#000000" points="223.5001,-349.9909 227,-359.991 230.5001,-349.991 223.5001,-349.9909"/>
</g>
<!-- ! -->
<g id="node3" class="node">
<title>!</title>
<polygon fill="#8dd3c7" stroke="#000000" points="98,-198 95,-202 74,-202 71,-198 44,-198 44,-162 98,-162 98,-198"/>
<text text-anchor="middle" x="71" y="-175.8" font-family="Times,serif" font-size="14.00" fill="#000000">!</text>
</g>
<!-- !&#45;&gt;AppModule -->
<g id="edge2" class="edge">
<title>!&#45;&gt;AppModule</title>
<path fill="none" stroke="#000000" d="M71,-198.2142C71,-234.6396 71,-313 71,-313 71,-313 175.1949,-313 175.1949,-313"/>
<polygon fill="#000000" stroke="#000000" points="175.1949,-316.5001 185.1949,-313 175.1948,-309.5001 175.1949,-316.5001"/>
</g>
<!-- AppRoutingModule -->
<g id="node4" class="node">
<title>AppRoutingModule</title>
<polygon fill="#8dd3c7" stroke="#000000" points="244.2744,-198 241.2744,-202 220.2744,-202 217.2744,-198 115.7256,-198 115.7256,-162 244.2744,-162 244.2744,-198"/>
<text text-anchor="middle" x="180" y="-175.8" font-family="Times,serif" font-size="14.00" fill="#000000">AppRoutingModule</text>
</g>
<!-- AppRoutingModule&#45;&gt;AppModule -->
<g id="edge3" class="edge">
<title>AppRoutingModule&#45;&gt;AppModule</title>
<path fill="none" stroke="#000000" d="M204.9102,-198.2142C204.9102,-198.2142 204.9102,-284.579 204.9102,-284.579"/>
<polygon fill="#000000" stroke="#000000" points="201.4103,-284.5789 204.9102,-294.579 208.4103,-284.579 201.4103,-284.5789"/>
</g>
<!-- AuthorizePaymentModule -->
<g id="node5" class="node">
<title>AuthorizePaymentModule</title>
<polygon fill="#8dd3c7" stroke="#000000" points="410.0211,-266 407.0211,-270 386.0211,-270 383.0211,-266 245.9789,-266 245.9789,-230 410.0211,-230 410.0211,-266"/>
<text text-anchor="middle" x="328" y="-243.8" font-family="Times,serif" font-size="14.00" fill="#000000">AuthorizePaymentModule</text>
</g>
<!-- AuthorizePaymentModule&#45;&gt;AppModule -->
<g id="edge4" class="edge">
<title>AuthorizePaymentModule&#45;&gt;AppModule</title>
<path fill="none" stroke="#000000" d="M257.284,-266.1061C257.284,-266.1061 257.284,-284.991 257.284,-284.991"/>
<polygon fill="#000000" stroke="#000000" points="253.7841,-284.9909 257.284,-294.991 260.7841,-284.991 253.7841,-284.9909"/>
</g>
<!-- CancelPaymentModule -->
<g id="node6" class="node">
<title>CancelPaymentModule</title>
<polygon fill="#8dd3c7" stroke="#000000" points="409.9144,-198 406.9144,-202 385.9144,-202 382.9144,-198 262.0856,-198 262.0856,-162 409.9144,-162 409.9144,-198"/>
<text text-anchor="middle" x="336" y="-175.8" font-family="Times,serif" font-size="14.00" fill="#000000">CancelPaymentModule</text>
</g>
<!-- CancelPaymentModule&#45;&gt;AppModule -->
<g id="edge5" class="edge">
<title>CancelPaymentModule&#45;&gt;AppModule</title>
<path fill="none" stroke="#000000" d="M286.8621,-198.1686C286.8621,-202.0459 286.8621,-205 286.8621,-205 286.8621,-205 224.6487,-205 224.6487,-205 224.6487,-205 224.6487,-284.6793 224.6487,-284.6793"/>
<polygon fill="#000000" stroke="#000000" points="221.1488,-284.6792 224.6487,-294.6793 228.1488,-284.6793 221.1488,-284.6792"/>
</g>
<!-- CancelPaymentModule&#45;&gt;AuthorizePaymentModule -->
<g id="edge10" class="edge">
<title>CancelPaymentModule&#45;&gt;AuthorizePaymentModule</title>
<path fill="none" stroke="#000000" d="M311.431,-198.2228C311.431,-198.2228 311.431,-219.7269 311.431,-219.7269"/>
<polygon fill="#000000" stroke="#000000" points="307.9311,-219.7269 311.431,-229.7269 314.9311,-219.727 307.9311,-219.7269"/>
</g>
<!-- CancelPaymentComponent  -->
<g id="node13" class="node">
<title>CancelPaymentComponent </title>
<polygon fill="#fb8072" stroke="#000000" points="422.1967,-122 249.8033,-122 249.8033,-86 422.1967,-86 422.1967,-122"/>
<text text-anchor="middle" x="336" y="-99.8" font-family="Times,serif" font-size="14.00" fill="#000000">CancelPaymentComponent </text>
</g>
<!-- CancelPaymentModule&#45;&gt;CancelPaymentComponent  -->
<g id="edge13" class="edge">
<title>CancelPaymentModule&#45;&gt;CancelPaymentComponent </title>
<path fill="none" stroke="#000000" stroke-dasharray="5,2" d="M360.569,-161.9891C360.569,-161.9891 360.569,-132.145 360.569,-132.145"/>
<polygon fill="#000000" stroke="#000000" points="364.0691,-132.145 360.569,-122.145 357.0691,-132.1451 364.0691,-132.145"/>
</g>
<!-- AuthorizePaymentComponent -->
<g id="node8" class="node">
<title>AuthorizePaymentComponent</title>
<polygon fill="#ffffb3" stroke="#000000" points="1192.3032,-198 1005.6968,-198 1005.6968,-162 1192.3032,-162 1192.3032,-198"/>
<text text-anchor="middle" x="1099" y="-175.8" font-family="Times,serif" font-size="14.00" fill="#000000">AuthorizePaymentComponent</text>
</g>
<!-- AuthorizePaymentComponent&#45;&gt;AuthorizePaymentModule -->
<g id="edge7" class="edge">
<title>AuthorizePaymentComponent&#45;&gt;AuthorizePaymentModule</title>
<path fill="none" stroke="#000000" d="M1099,-198.1097C1099,-207.897 1099,-218 1099,-218 1099,-218 360.569,-218 360.569,-218 360.569,-218 360.569,-219.8568 360.569,-219.8568"/>
<polygon fill="#000000" stroke="#000000" points="357.0691,-219.8568 360.569,-229.8568 364.0691,-219.8568 357.0691,-219.8568"/>
</g>
<!-- PaymentFormComponent -->
<g id="node9" class="node">
<title>PaymentFormComponent</title>
<polygon fill="#ffffb3" stroke="#000000" points="988.1596,-198 827.8404,-198 827.8404,-162 988.1596,-162 988.1596,-198"/>
<text text-anchor="middle" x="908" y="-175.8" font-family="Times,serif" font-size="14.00" fill="#000000">PaymentFormComponent</text>
</g>
<!-- PaymentFormComponent&#45;&gt;AuthorizePaymentModule -->
<g id="edge8" class="edge">
<title>PaymentFormComponent&#45;&gt;AuthorizePaymentModule</title>
<path fill="none" stroke="#000000" d="M908,-198.0328C908,-204.8526 908,-211 908,-211 908,-211 336,-211 336,-211 336,-211 336,-219.9336 336,-219.9336"/>
<polygon fill="#000000" stroke="#000000" points="332.5001,-219.9335 336,-229.9336 339.5001,-219.9336 332.5001,-219.9335"/>
</g>
<!-- ProductComponent -->
<g id="node10" class="node">
<title>ProductComponent</title>
<polygon fill="#ffffb3" stroke="#000000" points="1335.3809,-198 1210.6191,-198 1210.6191,-162 1335.3809,-162 1335.3809,-198"/>
<text text-anchor="middle" x="1273" y="-175.8" font-family="Times,serif" font-size="14.00" fill="#000000">ProductComponent</text>
</g>
<!-- ProductComponent&#45;&gt;AuthorizePaymentModule -->
<g id="edge9" class="edge">
<title>ProductComponent&#45;&gt;AuthorizePaymentModule</title>
<path fill="none" stroke="#000000" d="M1273,-198.1505C1273,-210.2708 1273,-224 1273,-224 1273,-224 385.1379,-224 385.1379,-224 385.1379,-224 385.1379,-224.581 385.1379,-224.581"/>
<polygon fill="#000000" stroke="#000000" points="381.6381,-219.8097 385.1379,-229.8097 388.6381,-219.8098 381.6381,-219.8097"/>
</g>
<!-- AuthorizePaymentService -->
<g id="node11" class="node">
<title>AuthorizePaymentService</title>
<ellipse fill="#fdb462" stroke="#000000" cx="692" cy="-180" rx="112.2975" ry="18"/>
<text text-anchor="middle" x="692" y="-175.8" font-family="Times,serif" font-size="14.00" fill="#000000">AuthorizePaymentService</text>
</g>
<!-- AuthorizePaymentService&#45;&gt;AuthorizePaymentModule -->
<g id="edge11" class="edge">
<title>AuthorizePaymentService&#45;&gt;AuthorizePaymentModule</title>
<path fill="none" stroke="#000000" d="M585.8888,-186C512.6175,-186 428.3144,-186 428.3144,-186 428.3144,-186 428.3144,-248 428.3144,-248 428.3144,-248 420.3802,-248 420.3802,-248"/>
<polygon fill="#000000" stroke="#000000" points="420.3802,-244.5001 410.3802,-248 420.3801,-251.5001 420.3802,-244.5001"/>
</g>
<!-- CancelPaymentComponent -->
<g id="node12" class="node">
<title>CancelPaymentComponent</title>
<polygon fill="#ffffb3" stroke="#000000" points="615.6965,-122 446.3035,-122 446.3035,-86 615.6965,-86 615.6965,-122"/>
<text text-anchor="middle" x="531" y="-99.8" font-family="Times,serif" font-size="14.00" fill="#000000">CancelPaymentComponent</text>
</g>
<!-- CancelPaymentComponent&#45;&gt;CancelPaymentModule -->
<g id="edge12" class="edge">
<title>CancelPaymentComponent&#45;&gt;CancelPaymentModule</title>
<path fill="none" stroke="#000000" d="M493.0607,-122.0267C493.0607,-142.7672 493.0607,-174 493.0607,-174 493.0607,-174 419.9313,-174 419.9313,-174"/>
<polygon fill="#000000" stroke="#000000" points="419.9313,-170.5001 409.9313,-174 419.9312,-177.5001 419.9313,-170.5001"/>
</g>
<!-- CancelPaymentService -->
<g id="node14" class="node">
<title>CancelPaymentService</title>
<ellipse fill="#fdb462" stroke="#000000" cx="125" cy="-104" rx="100.6978" ry="18"/>
<text text-anchor="middle" x="125" y="-99.8" font-family="Times,serif" font-size="14.00" fill="#000000">CancelPaymentService</text>
</g>
<!-- CancelPaymentService&#45;&gt;CancelPaymentModule -->
<g id="edge14" class="edge">
<title>CancelPaymentService&#45;&gt;CancelPaymentModule</title>
<path fill="none" stroke="#000000" d="M170.6059,-120.336C170.6059,-130.6353 170.6059,-142 170.6059,-142 170.6059,-142 311.431,-142 311.431,-142 311.431,-142 311.431,-151.8903 311.431,-151.8903"/>
<polygon fill="#000000" stroke="#000000" points="307.9311,-151.8903 311.431,-161.8903 314.9311,-151.8904 307.9311,-151.8903"/>
</g>
</g>
</svg>
