<?xml version="1.0" encoding="UTF-8" standalone="no"?>
<!DOCTYPE svg PUBLIC "-//W3C//DTD SVG 1.1//EN"
 "http://www.w3.org/Graphics/SVG/1.1/DTD/svg11.dtd">
<!-- Generated by graphviz version 2.40.1 (20161225.0304)
 -->
<!-- Title: dependencies Pages: 1 -->
<svg width="504pt" height="284pt"
 viewBox="0.00 0.00 504.00 284.00" xmlns="http://www.w3.org/2000/svg" xmlns:xlink="http://www.w3.org/1999/xlink">
<g id="graph0" class="graph" transform="scale(1 1) rotate(0) translate(4 280)">
<title>dependencies</title>
<polygon fill="#ffffff" stroke="transparent" points="-4,4 -4,-280 500,-280 500,4 -4,4"/>
<text text-anchor="start" x="227.0091" y="-42.4" font-family="sans-serif" font-weight="bold" font-size="14.00" fill="#000000">Legend</text>
<polygon fill="#ffffb3" stroke="transparent" points="14,-10 14,-30 34,-30 34,-10 14,-10"/>
<text text-anchor="start" x="37.629" y="-15.4" font-family="sans-serif" font-size="14.00" fill="#000000"> &#160;Declarations</text>
<polygon fill="#8dd3c7" stroke="transparent" points="127,-10 127,-30 147,-30 147,-10 127,-10"/>
<text text-anchor="start" x="150.7251" y="-15.4" font-family="sans-serif" font-size="14.00" fill="#000000"> &#160;Module</text>
<polygon fill="#80b1d3" stroke="transparent" points="213,-10 213,-30 233,-30 233,-10 213,-10"/>
<text text-anchor="start" x="236.7812" y="-15.4" font-family="sans-serif" font-size="14.00" fill="#000000"> &#160;Bootstrap</text>
<polygon fill="#fdb462" stroke="transparent" points="310,-10 310,-30 330,-30 330,-10 310,-10"/>
<text text-anchor="start" x="333.6732" y="-15.4" font-family="sans-serif" font-size="14.00" fill="#000000"> &#160;Providers</text>
<polygon fill="#fb8072" stroke="transparent" points="406,-10 406,-30 426,-30 426,-10 406,-10"/>
<text text-anchor="start" x="429.7258" y="-15.4" font-family="sans-serif" font-size="14.00" fill="#000000"> &#160;Exports</text>
<g id="clust1" class="cluster">
<title>cluster_CancelPaymentModule</title>
<polygon fill="none" stroke="#000000" stroke-dasharray="1,5" points="34,-70 34,-268 462,-268 462,-70 34,-70"/>
</g>
<g id="clust2" class="cluster">
<title>cluster_CancelPaymentModule_declarations</title>
<polygon fill="none" stroke="#000000" points="268,-78 268,-130 454,-130 454,-78 268,-78"/>
</g>
<g id="clust5" class="cluster">
<title>cluster_CancelPaymentModule_exports</title>
<polygon fill="none" stroke="#000000" points="161,-208 161,-260 349,-260 349,-208 161,-208"/>
</g>
<g id="clust7" class="cluster">
<title>cluster_CancelPaymentModule_providers</title>
<polygon fill="none" stroke="#000000" points="42,-78 42,-130 260,-130 260,-78 42,-78"/>
</g>
<!-- CancelPaymentComponent -->
<g id="node1" class="node">
<title>CancelPaymentComponent</title>
<polygon fill="#ffffb3" stroke="#000000" points="445.6965,-122 276.3035,-122 276.3035,-86 445.6965,-86 445.6965,-122"/>
<text text-anchor="middle" x="361" y="-99.8" font-family="Times,serif" font-size="14.00" fill="#000000">CancelPaymentComponent</text>
</g>
<!-- CancelPaymentModule -->
<g id="node2" class="node">
<title>CancelPaymentModule</title>
<polygon fill="#8dd3c7" stroke="#000000" points="328.9144,-187 325.9144,-191 304.9144,-191 301.9144,-187 181.0856,-187 181.0856,-151 328.9144,-151 328.9144,-187"/>
<text text-anchor="middle" x="255" y="-164.8" font-family="Times,serif" font-size="14.00" fill="#000000">CancelPaymentModule</text>
</g>
<!-- CancelPaymentComponent&#45;&gt;CancelPaymentModule -->
<g id="edge1" class="edge">
<title>CancelPaymentComponent&#45;&gt;CancelPaymentModule</title>
<path fill="none" stroke="#000000" d="M302.5544,-122.1061C302.5544,-122.1061 302.5544,-140.991 302.5544,-140.991"/>
<polygon fill="#000000" stroke="#000000" points="299.0544,-140.9909 302.5544,-150.991 306.0544,-140.991 299.0544,-140.9909"/>
</g>
<!-- CancelPaymentComponent  -->
<g id="node3" class="node">
<title>CancelPaymentComponent </title>
<polygon fill="#fb8072" stroke="#000000" points="341.1967,-252 168.8033,-252 168.8033,-216 341.1967,-216 341.1967,-252"/>
<text text-anchor="middle" x="255" y="-229.8" font-family="Times,serif" font-size="14.00" fill="#000000">CancelPaymentComponent </text>
</g>
<!-- CancelPaymentModule&#45;&gt;CancelPaymentComponent  -->
<g id="edge2" class="edge">
<title>CancelPaymentModule&#45;&gt;CancelPaymentComponent </title>
<path fill="none" stroke="#000000" stroke-dasharray="5,2" d="M255,-187.1061C255,-187.1061 255,-205.991 255,-205.991"/>
<polygon fill="#000000" stroke="#000000" points="251.5001,-205.9909 255,-215.991 258.5001,-205.991 251.5001,-205.9909"/>
</g>
<!-- CancelPaymentService -->
<g id="node4" class="node">
<title>CancelPaymentService</title>
<ellipse fill="#fdb462" stroke="#000000" cx="151" cy="-104" rx="100.6978" ry="18"/>
<text text-anchor="middle" x="151" y="-99.8" font-family="Times,serif" font-size="14.00" fill="#000000">CancelPaymentService</text>
</g>
<!-- CancelPaymentService&#45;&gt;CancelPaymentModule -->
<g id="edge3" class="edge">
<title>CancelPaymentService&#45;&gt;CancelPaymentModule</title>
<path fill="none" stroke="#000000" d="M216.446,-117.7848C216.446,-117.7848 216.446,-140.5475 216.446,-140.5475"/>
<polygon fill="#000000" stroke="#000000" points="212.9461,-140.5474 216.446,-150.5475 219.9461,-140.5475 212.9461,-140.5474"/>
</g>
</g>
</svg>
